# xmcd CD database file
#
# Track frame offsets:
#	187
#	26887
#	49387
#
# Disc length: 1011 seconds
#
# Revision: 0
# Processed by: cddbd v1.5.2PL0 Copyright (c) Steve Scherf et al.
# Submitted via: CDex 1.70beta2
#
DISCID=2503f103
DTITLE=高橋洋子 - ブルーの翼
DYEAR=1900
DGENRE=Blues
TTITLE0=ブルーの翼
TTITLE1=Little Bird
TTITLE2=ブルーの翼 （オリジナル・カラオケ）
EXTD=
EXTT0=
EXTT1=
EXTT2=
PLAYORDER=
